<svg height='100px' width='100px'  fill="#4e98fd" xmlns="http://www.w3.org/2000/svg" viewBox="0 0 100 100" x="0px" y="0px"><title>Creator Icon_32</title><path d="M24,65.4165h3.5v.417a3.75,3.75,0,0,0,7.5,0v-20.5a3.74626,3.74626,0,0,0-7.4917-.08185L27.5,45.25H25.3335V43.4165a25,25,0,0,1,50,0V45.25H72.5l-.0083.00165A3.74626,3.74626,0,0,0,65,45.3335v20.5a3.75,3.75,0,0,0,7.5,0v-.417H76v4a9.17728,9.17728,0,0,1-9.1665,9.167h-8.142a3.99626,3.99626,0,0,0-3.858-3h-5.417a4,4,0,0,0,0,8h5.417a3.99626,3.99626,0,0,0,3.858-3h8.142A11.17926,11.17926,0,0,0,78,69.4165V65.14276A7.67312,7.67312,0,0,0,83.6665,57.75V52.9165a7.67317,7.67317,0,0,0-6.333-7.5426V43.4165a27,27,0,0,0-54,0v1.86725a7.6731,7.6731,0,0,0-7,7.63275V57.75A7.67491,7.67491,0,0,0,24,65.4165Zm5.5-20.083a1.75,1.75,0,0,1,3.5,0v20.5a1.75,1.75,0,0,1-3.5,0Zm41,20.5a1.75,1.75,0,0,1-3.5,0v-20.5a1.75,1.75,0,0,1,3.5,0Zm-15.6665,15.75h-5.417a2,2,0,0,1,0-4h5.417a2,2,0,0,1,0,4Zm26.833-28.667V57.75A5.67293,5.67293,0,0,1,76,63.4165H72.5V47.25H76A5.67293,5.67293,0,0,1,81.6665,52.9165Zm-63.333,0A5.67293,5.67293,0,0,1,24,47.25h3.5V63.4165H24A5.67293,5.67293,0,0,1,18.3335,57.75Z"></path></svg>