<svg height='100px' width='100px'  fill="#4e98fd" xmlns="http://www.w3.org/2000/svg" xmlns:xlink="http://www.w3.org/1999/xlink" version="1.1" x="0px" y="0px" viewBox="0 0 32 32" enable-background="new 0 0 32 32" xml:space="preserve"><g display="none"><rect x="-66.557" y="-163.839" display="inline" fill="#4e98fd" width="531.376" height="207.333"></rect></g><g><g><rect x="3.386" y="24.366" width="3.815" height="7.634"></rect><rect x="9.586" y="20.003" width="3.815" height="11.997"></rect><rect x="15.785" y="15.096" width="3.815" height="16.904"></rect><rect x="21.985" y="10.188" width="3.815" height="21.812"></rect><rect x="28.185" y="6.916" width="3.815" height="25.084"></rect><polygon points="22.666,1.587 0,19.837 1.254,21.395 23.918,3.148 24.611,4.013 26.174,0 21.917,0.653   "></polygon></g></g><g display="none"><g display="inline" opacity="0.42"><rect x="3.386" y="24.366" fill="#4e98fd" width="3.815" height="7.634"></rect><rect x="9.586" y="20.003" fill="#4e98fd" width="3.815" height="11.997"></rect><rect x="15.785" y="15.096" fill="#4e98fd" width="3.815" height="16.904"></rect><rect x="21.985" y="10.188" fill="#4e98fd" width="3.815" height="21.812"></rect><rect x="28.185" y="6.916" fill="#4e98fd" width="3.815" height="25.084"></rect><polygon fill="#4e98fd" points="21.917,0.653 24.611,4.013 26.174,0   "></polygon><rect x="-2.59" y="10.491" transform="matrix(0.7792 -0.6268 0.6268 0.7792 -4.5614 10.0352)" fill="#4e98fd" width="29.101" height="2"></rect></g></g><g display="none"><rect x="3.386" y="24.366" display="inline" fill="#4e98fd" width="3.815" height="7.634"></rect><rect x="9.586" y="20.003" display="inline" fill="#4e98fd" width="3.815" height="11.997"></rect><rect x="15.785" y="15.096" display="inline" fill="#4e98fd" width="3.815" height="16.904"></rect><rect x="21.985" y="10.188" display="inline" fill="#4e98fd" width="3.815" height="21.812"></rect><rect x="28.185" y="6.916" display="inline" fill="#4e98fd" width="3.815" height="25.084"></rect><polygon display="inline" fill="#4e98fd" points="21.917,0.653 24.611,4.013 26.174,0  "></polygon><rect x="-2.59" y="10.491" transform="matrix(0.7792 -0.6268 0.6268 0.7792 -4.5614 10.0352)" display="inline" fill="#4e98fd" width="29.101" height="2"></rect></g><g display="none"><rect x="3.386" y="24.366" display="inline" width="3.815" height="7.634"></rect><rect x="9.586" y="20.003" display="inline" width="3.815" height="11.997"></rect><rect x="15.785" y="15.096" display="inline" width="3.815" height="16.904"></rect><rect x="21.985" y="10.188" display="inline" width="3.815" height="21.812"></rect><rect x="28.185" y="6.916" display="inline" width="3.815" height="25.084"></rect><polygon display="inline" fill="#4e98fd" points="21.917,0.653 24.611,4.013 26.174,0  "></polygon><rect x="-2.59" y="10.491" transform="matrix(0.7792 -0.6268 0.6268 0.7792 -4.5614 10.0352)" display="inline" fill="#4e98fd" width="29.101" height="2"></rect></g></svg>